# Blender 3.4.1
# www.blender.org
mtllib boothBase.mtl
#o balandongan_Cube.004
v 2.682585 -1.934845 -4.856602
v 2.682585 -1.934845 -2.641102
v -2.682585 -1.934845 -2.641102
v -2.682584 -1.934845 -4.856603
v 2.682586 1.934845 -4.856602
v 2.682583 1.934845 -2.641100
v -2.682586 1.934845 -2.641101
v -2.682585 1.934845 -4.856602
v 2.682586 -0.448062 -4.856602
v 2.682584 -0.448062 -2.641102
v -2.682586 -0.448062 -2.641102
v -2.682584 -0.448062 -4.856602
v 0.886840 -1.934845 -4.856602
v 0.886839 -1.934845 -2.641102
v 0.886840 1.934845 -4.856602
v 0.886838 1.934845 -2.641101
v 0.886840 -0.448062 -4.856602
v 0.886838 -0.448062 -2.641102
v 2.682586 -0.626476 -4.856602
v 2.682584 -0.626476 -2.641102
v -2.682586 -0.626476 -2.641102
v -2.682584 -0.626476 -4.856602
v 0.886839 -0.626476 -2.641102
v 0.886840 -0.626476 -4.856602
v 2.682586 1.673886 -4.856602
v 2.682583 1.673886 -2.641100
v -2.682586 1.673886 -2.641101
v -2.682585 1.673886 -4.856602
v 0.886840 1.673886 -4.856602
v 0.886838 1.673886 -2.641101
v 2.473626 -1.934845 -4.856602
v 2.473626 -1.934845 -2.641102
v 2.473627 1.934845 -4.856602
v 2.473624 1.934845 -2.641100
v 2.473626 -0.448062 -4.856602
v 2.473625 -0.448062 -2.641102
v 2.473626 -0.626476 -4.856602
v 2.473625 -0.626476 -2.641102
v 2.473624 1.673886 -2.641100
v 2.473627 1.673886 -4.856602
v -2.486876 -1.934845 -4.856603
v -2.486877 -1.934845 -2.641102
v -2.486876 1.934845 -4.856602
v -2.486877 1.934845 -2.641101
v -2.486876 -0.448062 -4.856602
v -2.486877 -0.448062 -2.641102
v -2.486877 -0.626476 -2.641102
v -2.486876 -0.626476 -4.856602
v -2.486876 1.673886 -4.856602
v -2.486878 1.673886 -2.641101
v 0.886839 -1.804008 -2.641102
v 2.682585 -1.804008 -4.856602
v 2.682585 -1.804008 -2.641102
v -2.682585 -1.804008 -2.641102
v -2.682584 -1.804008 -4.856603
v 0.886840 -1.804008 -4.856602
v 2.473625 -1.804008 -2.641102
v 2.473626 -1.804008 -4.856602
v -2.486877 -1.804008 -2.641102
v -2.486876 -1.804008 -4.856603
v 2.473626 -0.448062 -4.856602
v 0.886840 -0.448062 -4.856602
v 0.886840 1.673886 -4.856602
v 2.473627 1.673886 -4.856602
v -2.486876 -0.448062 -4.856602
v -2.486876 1.673886 -4.856602
v 0.812004 -0.400993 -4.856602
v 0.812004 1.626817 -4.856602
v -2.412040 -0.400993 -4.856602
v -2.412040 1.626817 -4.856602
v 0.812004 -0.400993 -2.795895
v 0.812004 1.626817 -2.795895
v -2.412040 -0.400993 -2.795896
v -2.412040 1.626817 -2.795896
v 2.425732 -0.384015 -4.856602
v 0.934734 -0.384015 -4.856602
v 0.934734 1.609839 -4.856602
v 2.425733 1.609839 -4.856602
v 2.425732 -0.384015 -2.783553
v 0.934734 -0.384015 -2.783553
v 0.934734 1.609839 -2.783553
v 2.425733 1.609839 -2.783553
v 0.781475 1.607617 -2.671640
v 0.781475 -0.381793 -2.671641
v -2.381514 -0.381793 -2.671642
v -2.381515 1.607617 -2.671642
v 2.420061 -0.376433 -2.666002
v 0.940403 -0.376433 -2.666002
v 0.940402 1.602257 -2.666002
v 2.420060 1.602257 -2.666002
v 2.645872 -0.373206 -4.778445
v 2.645871 -0.373206 -2.719258
v 2.645873 1.599030 -4.778444
v 2.645870 1.599030 -2.719256
v -2.660158 -0.399814 -2.691478
v -2.660157 -0.399814 -4.806226
v -2.660159 1.625638 -2.691478
v -2.660158 1.625638 -4.806226
v 0.743651 2.033985 -4.762570
v 0.743649 2.033985 -2.735132
v -2.343688 2.033985 -4.762570
v -2.343688 2.033985 -2.735132
v 2.407423 2.028703 -4.764166
v 0.953044 2.028703 -4.764166
v 2.407420 2.028703 -2.733535
v 0.953041 2.028703 -2.733535
v -0.816165 -0.626476 -4.856602
v -0.816164 -1.804008 -4.856602
v 0.739127 -1.752616 -4.833446
v 0.739127 -0.677869 -4.833446
v -0.815225 -0.677869 -4.833446
v -2.340103 -0.677869 -4.833446
v -2.340102 -1.752616 -4.833446
v -0.815225 -1.752616 -4.833446
v 0.938906 -1.765371 -4.825664
v 0.938906 -0.665114 -4.825664
v 2.421560 -0.665114 -4.825664
v 2.421559 -1.765371 -4.825664
v -2.699783 -1.752460 -2.738088
v -2.699783 -0.678024 -2.738088
v -2.699781 -1.752460 -4.759616
v -2.699782 -0.678024 -4.759616
v 2.728071 -1.766029 -4.785144
v 2.728072 -0.664456 -4.785143
v 2.728071 -1.766029 -2.712560
v 2.728070 -0.664456 -2.712560
v 2.399875 -0.681205 -2.625231
v 0.960588 -0.681205 -2.625231
v 0.960589 -1.749280 -2.625231
v 2.399875 -1.749280 -2.625231
v 0.726504 -0.682438 -2.640376
v -2.326543 -0.682438 -2.640376
v 0.726505 -1.748047 -2.640376
v -2.326542 -1.748047 -2.640376
v 0.822573 -0.226365 -4.678609
v 0.822573 1.452188 -4.678608
v 0.822573 -0.226365 -2.972826
v 0.822573 1.452188 -2.972825
v 0.924165 -0.212311 -4.678609
v 0.924165 1.438135 -4.678608
v 0.924165 -0.212311 -2.962609
v 0.924165 1.438135 -2.962609
v -2.456876 -0.271848 -4.725362
v -2.456876 1.497672 -4.725361
v -2.456876 -0.271848 -2.927136
v -2.456876 1.497671 -2.927135
v 2.461438 -0.280025 -4.748481
v 2.461438 1.505849 -4.748481
v 2.461438 -0.280025 -2.891674
v 2.461438 1.505849 -2.891673
v 0.679224 -0.343432 -2.880764
v -2.279260 -0.343432 -2.880765
v 2.364169 -0.306696 -2.869149
v 0.996297 -0.306696 -2.869149
v 2.317765 -2.005999 -4.777491
v 0.844301 -2.005999 -4.777491
v 2.317765 -2.005999 -2.720213
v 0.844301 -2.005999 -2.720214
v -2.288476 -2.005999 -4.777491
v -2.288477 -2.005999 -2.720214
vn -0.0000 -1.0000 -0.0000
vn -0.0000 1.0000 -0.0000
vn 1.0000 -0.0000 -0.0000
vn -0.0000 -0.0000 1.0000
vn -1.0000 -0.0000 -0.0000
vn -0.0000 -0.0000 -1.0000
vn 0.8172 0.5764 -0.0000
vn -0.0000 -0.7435 -0.6687
vn -0.0000 0.2785 0.9604
vn 0.8436 -0.0000 -0.5370
vn -0.9846 -0.0000 -0.1746
vn -0.4216 -0.0000 0.9068
vn -0.9136 -0.0000 0.4067
vn 0.8978 0.4403 -0.0000
vn -0.0000 0.4185 0.9082
vn -0.0000 -0.0130 0.9999
vn -0.0000 0.6882 0.7256
vn -0.3376 -0.9413 -0.0000
vn -0.0000 -0.4108 -0.9117
vn 0.5108 -0.0000 -0.8597
vn 0.9463 -0.0000 0.3233
vn -0.9982 -0.0604 -0.0000
vn -0.9496 -0.0000 0.3136
vn 0.9981 -0.0614 -0.0000
vn -0.2784 -0.0000 0.9605
vn -0.0000 -0.4185 0.9082
vn 0.2784 -0.0000 0.9605
vn 0.4215 -0.0000 0.9068
vn -0.0000 0.3284 0.9446
vn -0.0000 -0.3284 0.9446
vn 0.8978 -0.4403 -0.0000
vn 0.9051 -0.0000 0.4252
vn 0.9051 -0.0000 -0.4252
vn -0.9068 0.4215 -0.0000
vn -0.9068 -0.4215 -0.0000
vn -0.9136 -0.0000 -0.4067
vn -0.0000 0.6882 -0.7256
vn -0.5692 0.8222 -0.0000
vn 0.5692 0.8222 -0.0000
vn -0.0000 0.7017 0.7125
vn -0.0000 0.7017 -0.7125
vn -0.8172 0.5764 -0.0000
vn 0.1558 -0.0000 -0.9878
vn -0.0000 0.4108 -0.9117
vn -0.1549 -0.0000 -0.9879
vn -0.5108 -0.0000 -0.8597
vn -0.0000 -0.6250 -0.7806
vn -0.0000 0.6250 -0.7806
vn -0.9486 0.3165 -0.0000
vn -0.9846 -0.0000 0.1746
vn -0.9486 -0.3165 -0.0000
vn 0.6409 -0.7676 -0.0000
vn 0.6409 0.7676 -0.0000
vn 0.8436 -0.0000 0.5370
vn -0.2104 -0.0000 0.9776
vn -0.0000 -0.2785 0.9604
vn 0.2104 -0.0000 0.9776
vn 0.0045 -0.0000 1.0000
vn -0.0045 -0.0000 1.0000
vn -0.0000 0.0130 0.9999
vn -0.9982 -0.0000 -0.0596
vn -0.9982 -0.0000 0.0593
vn 0.9983 -0.0000 -0.0589
vn 0.9982 -0.0000 0.0593
vn 0.9981 0.0614 -0.0000
vn -0.9982 0.0604 -0.0000
vn 0.9463 -0.0000 -0.3233
vn 0.9447 -0.3280 -0.0000
vn 0.9447 0.3280 -0.0000
vn -0.9496 -0.0000 -0.3136
vn -0.9458 0.3248 -0.0000
vn -0.9458 -0.3247 -0.0000
vn -0.0000 0.8276 0.5613
vn -0.0000 0.7421 0.6703
vn -0.0000 -0.7435 0.6687
vn 0.4153 -0.9097 -0.0000
vt 0.000000 0.000000
vt 0.000000 0.000000
vt 0.000000 0.000000
vt 0.000000 0.000000
vt 0.000000 0.000000
vt 0.000000 0.000000
vt 0.000000 0.000000
vt 0.000000 0.000000
vt 0.000000 0.000000
vt 0.000000 0.000000
vt 0.000000 0.000000
vt 0.000000 0.000000
vt 0.000000 0.000000
vt 0.000000 0.000000
vt 0.000000 0.000000
vt 0.000000 0.000000
vt 0.000000 0.000000
vt 0.000000 0.000000
vt 0.000000 0.000000
vt 0.000000 0.000000
vt 0.000000 0.000000
vt 0.000000 0.000000
vt 0.000000 0.000000
vt 0.000000 0.000000
vt 0.000000 0.000000
vt 0.000000 0.000000
vt 0.000000 0.000000
vt 0.000000 0.000000
vt 0.000000 0.000000
vt 0.000000 0.000000
vt 0.000000 0.000000
vt 0.000000 0.000000
vt 0.000000 0.000000
vt 0.000000 0.000000
vt 0.000000 0.000000
vt 0.000000 0.000000
vt 0.000000 0.000000
vt 0.000000 0.000000
vt 0.000000 0.000000
vt 0.000000 0.000000
vt 0.000000 0.000000
vt 0.000000 0.000000
vt 0.000000 0.000000
vt 0.000000 0.000000
vt 0.000000 0.000000
vt 0.000000 0.000000
vt 0.000000 0.000000
vt 0.000000 0.000000
vt 0.000000 0.000000
vt 0.000000 0.000000
vt 0.000000 0.000000
vt 0.000000 0.000000
vt 0.000000 0.000000
vt 0.000000 0.000000
vt 0.000000 0.000000
vt 0.000000 0.000000
vt 0.000000 0.000000
vt 0.000000 0.000000
vt 0.000000 0.000000
vt 0.000000 0.000000
vt 0.000000 0.000000
vt 0.000000 0.000000
vt 0.000000 0.000000
vt 0.000000 0.000000
vt 0.000000 0.000000
vt 0.000000 0.000000
vt 0.000000 0.000000
vt 0.000000 0.000000
vt 0.000000 0.000000
vt 0.000000 0.000000
vt 0.000000 0.000000
vt 0.000000 0.000000
vt 0.000000 0.000000
vt 0.000000 0.000000
vt 0.000000 0.000000
vt 0.000000 0.000000
vt 0.000000 0.000000
vt 0.000000 0.000000
vt 0.000000 0.000000
vt 0.000000 0.000000
vt 0.000000 0.000000
vt 0.000000 0.000000
vt 0.000000 0.000000
vt 0.000000 0.000000
vt 0.000000 0.000000
vt 0.000000 0.000000
vt 0.000000 0.000000
vt 0.000000 0.000000
vt 0.000000 0.000000
vt 0.000000 0.000000
vt 0.000000 0.000000
vt 0.000000 0.000000
vt 0.000000 0.000000
vt 0.000000 0.000000
vt 0.000000 0.000000
vt 0.000000 0.000000
vt 0.000000 0.000000
vt 0.000000 0.000000
vt 0.000000 0.000000
vt 0.000000 0.000000
vt 0.000000 0.000000
vt 0.000000 0.000000
vt 0.000000 0.000000
vt 0.000000 0.000000
vt 0.000000 0.000000
vt 0.000000 0.000000
vt 0.000000 0.000000
vt 0.000000 0.000000
vt 0.000000 0.000000
vt 0.000000 0.000000
vt 0.000000 0.000000
vt 0.000000 0.000000
vt 0.000000 0.000000
vt 0.000000 0.000000
vt 0.000000 0.000000
vt 0.000000 0.000000
vt 0.000000 0.000000
vt 0.000000 0.000000
vt 0.999706 -0.000727
vt 0.000000 0.000000
vt 1.000182 0.303535
vt 0.000000 0.000000
vt -0.000182 0.000838
vt 0.000000 0.000000
vt 0.000294 0.305100
vt 0.000000 0.000000
vt 0.000000 0.000000
vt 0.000000 0.000000
vt 0.000000 0.000000
vt 0.000000 0.000000
vt 0.000000 0.000000
vt 0.000000 0.000000
vt 0.000000 0.000000
vt 0.000000 0.000000
vt 0.999930 0.483920
vt 0.000000 0.000000
vt 0.000070 0.483920
vt 0.000000 0.000000
vt 0.999930 0.000070
vt 0.000000 0.000000
vt 0.000000 0.000000
vt 0.000000 0.000000
vt 0.000000 0.000000
vt 0.000000 0.000000
vt 0.000000 0.000000
vt 0.000000 0.000000
vt 0.000000 0.000000
vt 0.000000 0.000000
vt 0.000000 0.000000
vt 0.000000 0.000000
vt 0.000000 0.000000
vt 0.000000 0.000000
vt 0.000000 0.000000
vt 0.000000 0.000000
vt 0.000000 0.000000
vt 0.000000 0.000000
vt 0.000000 0.000000
vt 0.000000 0.000000
vt 0.000000 0.000000
vt 0.000000 0.000000
vt 0.000000 0.000000
vt 0.000000 0.000000
vt 0.000000 0.000000
vt 0.000000 0.000000
vt 0.000000 0.000000
vt 0.000000 0.000000
vt 0.000000 0.000000
s 0
usemtl uv_kayu
f 41/41/1 42/42/1 3/3/1 4/4/1
f 43/43/2 8/8/2 7/7/2 44/44/2
f 25/25/3 5/5/3 6/6/3 26/26/3
f 50/50/4 44/44/4 7/7/4 27/27/4
f 27/27/5 7/7/5 8/8/5 28/28/5
f 60/60/6 41/41/6 4/4/6 55/55/6
f 49/49/6 45/45/6 12/12/6 28/28/6
f 21/21/5 11/11/5 12/12/5 22/22/5
f 47/47/4 46/46/4 11/11/4 21/21/4
f 19/19/3 9/9/3 10/10/3 20/20/3
f 38/38/4 36/36/4 18/18/4 23/23/4
f 29/29/4 40/40/4 64/64/4 63/63/4
f 58/58/6 31/31/6 13/13/6 56/56/6
f 39/39/4 34/34/4 16/16/4 30/30/4
f 34/34/7 33/33/7 103/103/7 105/105/7
f 41/41/8 13/13/8 156/163/8 159/166/8
f 35/35/6 37/37/6 24/24/6 17/17/6
f 38/38/9 23/23/9 128/132/9 127/131/9
f 52/52/10 19/19/10 124/128/10 123/127/10
f 59/59/4 47/47/4 21/21/4 54/54/4
f 22/22/11 55/55/11 121/124/11 122/126/11
f 45/45/6 48/48/6 22/22/6 12/12/6
f 36/36/12 39/39/12 90/90/12 87/87/12
f 33/33/6 40/40/6 29/29/6 15/15/6
f 43/43/6 49/49/6 28/28/6 8/8/6
f 28/28/13 12/12/13 96/96/13 98/98/13
f 46/46/4 50/50/4 27/27/4 11/11/4
f 10/10/14 9/9/14 91/91/14 92/92/14
f 5/5/6 25/25/6 40/40/6 33/33/6
f 10/10/4 26/26/4 39/39/4 36/36/4
f 53/53/4 20/20/4 38/38/4 57/57/4
f 9/9/6 19/19/6 37/37/6 35/35/6
f 1/1/1 2/2/1 32/32/1 31/31/1
f 5/5/2 33/33/2 34/34/2 6/6/2
f 26/26/4 6/6/4 34/34/4 39/39/4
f 52/52/6 1/1/6 31/31/6 58/58/6
f 25/25/6 9/9/6 35/35/6 40/40/6
f 20/20/4 10/10/4 36/36/4 38/38/4
f 46/46/15 18/18/15 84/84/15 85/85/15
f 15/15/6 29/29/6 49/49/6 43/43/6
f 17/17/6 24/24/6 107/107/6 48/48/6 45/45/6
f 59/59/16 51/51/16 133/140/16 134/141/16
f 23/23/4 18/18/4 46/46/4 47/47/4
f 45/45/4 49/49/4 66/66/4 65/65/4
f 56/56/6 13/13/6 41/41/6 60/60/6 108/108/6
f 30/30/4 16/16/4 44/44/4 50/50/4
f 44/44/17 16/16/17 100/100/17 102/102/17
f 42/42/18 41/41/18 159/166/18 160/167/18
f 107/107/19 24/24/19 110/110/19 111/111/19
f 14/14/4 51/51/4 59/59/4 42/42/4
f 19/19/6 52/52/6 58/58/6 37/37/6
f 2/2/4 53/53/4 57/57/4 32/32/4
f 3/3/5 54/54/5 55/55/5 4/4/5
f 42/42/4 59/59/4 54/54/4 3/3/4
f 1/1/3 52/52/3 53/53/3 2/2/3
f 32/32/4 57/57/4 51/51/4 14/14/4
f 56/56/20 24/24/20 116/116/20 115/115/20
f 48/48/6 60/60/6 55/55/6 22/22/6
f 64/64/6 61/61/6 75/75/6 78/78/6
f 62/62/6 65/65/6 69/69/6 67/67/6
f 49/49/4 29/29/4 63/63/4 66/66/4
f 35/35/4 17/17/4 62/62/4 61/61/4
f 17/17/4 45/45/4 65/65/4 62/62/4
f 40/40/4 35/35/4 61/61/4 64/64/4
f 69/69/21 70/70/21 144/151/21 143/150/21
f 66/66/6 63/63/6 68/68/6 70/70/6
f 63/63/6 62/62/6 67/67/6 68/68/6
f 65/65/6 66/66/6 70/70/6 69/69/6
f 72/72/22 68/68/22 136/143/22 138/145/22
f 70/70/1 68/68/1 72/72/1 74/74/1
f 78/78/23 75/75/23 147/154/23 148/155/23
f 61/61/6 62/62/6 76/76/6 75/75/6
f 62/62/6 63/63/6 77/77/6 76/76/6
f 63/63/6 64/64/6 78/78/6 77/77/6
f 77/77/24 81/81/24 142/149/24 140/147/24
f 77/77/1 78/78/1 82/82/1 81/81/1
f 18/18/25 30/30/25 83/83/25 84/84/25
f 30/30/26 50/50/26 86/86/26 83/83/26
f 50/50/27 46/46/27 85/85/27 86/86/27
f 30/30/28 18/18/28 88/88/28 89/89/28
f 18/18/29 36/36/29 87/87/29 88/88/29
f 39/39/30 30/30/30 89/89/30 90/90/30
f 25/25/31 26/26/31 94/94/31 93/93/31
f 9/9/32 25/25/32 93/93/32 91/91/32
f 26/26/33 10/10/33 92/92/33 94/94/33
f 12/12/34 11/11/34 95/95/34 96/96/34
f 27/27/35 28/28/35 98/98/35 97/97/35
f 11/11/36 27/27/36 97/97/36 95/95/36
f 99/99/2 101/101/2 102/102/2 100/100/2
f 15/15/37 43/43/37 101/101/37 99/99/37
f 43/43/38 44/44/38 102/102/38 101/101/38
f 16/16/39 15/15/39 99/99/39 100/100/39
f 103/103/2 104/104/2 106/106/2 105/105/2
f 16/16/40 34/34/40 105/105/40 106/106/40
f 33/33/41 15/15/41 104/104/41 103/103/41
f 15/15/42 16/16/42 106/106/42 104/104/42
f 110/110/6 109/109/6 114/114/6 111/111/6
f 48/48/19 107/107/19 111/111/19 112/112/19
f 111/111/6 114/114/6 113/113/6 112/112/6
f 60/60/43 48/48/43 112/112/43 113/113/43
f 56/56/44 108/108/44 114/114/44 109/109/44
f 24/24/45 56/56/45 109/109/45 110/110/45
f 108/108/44 60/60/44 113/113/44 114/114/44
f 117/117/6 118/118/6 115/115/6 116/116/6
f 37/37/46 58/58/46 118/118/46 117/117/46
f 24/24/47 37/37/47 117/117/47 116/116/47
f 58/58/48 56/56/48 115/115/48 118/118/48
f 119/119/5 120/121/5 122/125/5 121/123/5
f 21/21/49 22/22/49 122/126/49 120/122/49
f 54/54/50 21/21/50 120/122/50 119/120/50
f 55/55/51 54/54/51 119/120/51 121/124/51
f 123/127/3 124/128/3 126/130/3 125/129/3
f 53/53/52 52/52/52 123/127/52 125/129/52
f 19/19/53 20/20/53 126/130/53 124/128/53
f 20/20/54 53/53/54 125/129/54 126/130/54
f 130/134/4 127/131/4 128/132/4 129/133/4
f 23/23/55 51/51/55 129/133/55 128/132/55
f 51/51/56 57/57/56 130/134/56 129/133/56
f 57/57/57 38/38/57 127/131/57 130/134/57
f 133/139/4 131/135/4 132/137/4 134/141/4
f 51/51/58 23/23/58 131/136/58 133/140/58
f 47/47/59 59/59/59 134/141/59 132/138/59
f 23/23/60 47/47/60 132/138/60 131/136/60
f 71/71/61 72/72/61 138/145/61 137/144/61
f 68/68/62 67/67/62 135/142/62 136/143/62
f 81/81/63 80/80/63 141/148/63 142/149/63
f 76/76/64 77/77/64 140/147/64 139/146/64
f 80/80/65 76/76/65 139/146/65 141/148/65
f 67/67/66 71/71/66 137/144/66 135/142/66
f 74/74/67 73/73/67 145/152/67 146/153/67
f 70/70/68 74/74/68 146/153/68 144/151/68
f 73/73/69 69/69/69 143/150/69 145/152/69
f 79/79/70 82/82/70 150/157/70 149/156/70
f 75/75/71 79/79/71 149/156/71 147/154/71
f 82/82/72 78/78/72 148/155/72 150/157/72
f 73/73/73 71/71/73 151/158/73 152/159/73
f 80/80/74 79/79/74 153/160/74 154/161/74
f 155/162/1 157/164/1 158/165/1 156/163/1
f 156/163/1 158/165/1 160/167/1 159/166/1
f 13/13/8 31/31/8 155/162/8 156/163/8
f 14/14/75 42/42/75 160/167/75 158/165/75
f 32/32/75 14/14/75 158/165/75 157/164/75
f 31/31/76 32/32/76 157/164/76 155/162/76
