# Blender v3.4.1 OBJ File: ''
# www.blender.org
mtllib base3.mtl
#o Carousel.669
v -0.143471 0.923641 0.072439
v -3.010148 0.947967 -2.727446
v -0.143471 0.947967 0.072439
v -3.010148 0.923642 -2.727446
v -2.932128 0.947967 -2.651243
v -3.559986 0.947967 -1.852014
v -3.954661 0.947967 -0.921303
v -4.088578 0.947967 0.072439
v -3.954595 0.947967 1.076224
v -4.089253 0.947967 0.077465
v -3.559861 0.947967 2.006911
v -2.936308 0.947966 2.800554
v -2.931950 0.947966 2.806101
v -0.143115 0.947967 0.072439
v -2.113655 0.947966 3.419331
v -1.160741 0.947966 3.804810
v -0.143115 0.947965 3.935629
v 2.655580 0.947966 2.805928
v -0.138147 0.947965 3.936268
v 0.884436 0.947965 3.804745
v 1.837327 0.947966 3.419208
v 3.812063 0.947967 0.072439
v 3.283439 0.947967 2.006698
v 3.678114 0.947967 1.075988
v 3.812708 0.947967 0.077219
v 2.649925 0.947967 -2.655523
v 2.655403 0.947967 -2.651417
v 3.283314 0.947967 -1.852228
v 3.678047 0.947967 -0.921540
vt 0.242858 0.802542
vt 0.241943 0.913822
vt 0.241943 0.802558
vt 0.242858 0.913806
vt 0.114294 0.608713
vt 0.196040 0.692342
vt 0.193815 0.690066
vt 0.169937 0.707836
vt 0.142257 0.718841
vt 0.112811 0.722313
vt 0.083168 0.718067
vt 0.112662 0.722331
vt 0.055786 0.706341
vt 0.032544 0.688079
vt 0.032381 0.687951
vt 0.114294 0.608703
vt 0.014549 0.664151
vt 0.003504 0.636563
vt 0.000017 0.607210
vt 0.034487 0.527057
vt 0.000000 0.607066
vt 0.004275 0.577671
vt 0.016038 0.550382
vt 0.115781 0.494812
vt 0.058365 0.509286
vt 0.086044 0.498281
vt 0.115640 0.494792
vt 0.196040 0.529330
vt 0.195920 0.529171
vt 0.172515 0.510781
vt 0.145133 0.499055
vn 0.3589 0.2612 -0.8961
vn 0.6987 0.0000 -0.7154
vn 0.3717 0.0002 -0.9284
vn 0.8101 0.5836 -0.0558
vn -0.7038 0.3238 0.6323
vn 0.0000 1.0000 0.0000
vn 0.0000 1.0000 0.0001
vn 0.0000 1.0000 -0.0002
vn -0.4981 0.7071 -0.5019
usemtl STL
s 1
f 1/1/1 2/2/2 3/3/3
f 2/2/2 1/1/1 4/4/4
f 3/5/3 2/6/2 5/7/5
f 6/8/6 3/5/6 5/7/6
f 7/9/6 3/5/6 6/8/6
f 3/5/6 7/9/6 8/10/6
f 8/10/6 9/11/6 3/5/6
f 9/11/6 8/10/6 10/12/6
f 3/5/6 9/11/6 11/13/6
f 3/5/6 11/13/6 12/14/6
f 13/15/6 14/16/7 12/14/6
f 3/5/8 12/14/6 14/16/7
f 14/16/7 13/15/6 15/17/6
f 14/16/7 15/17/6 16/18/6
f 14/16/7 16/18/6 17/19/6
f 17/19/6 18/20/6 14/16/7
f 18/20/6 17/19/6 19/21/6
f 18/20/6 19/21/6 20/22/6
f 18/20/6 20/22/6 21/23/6
f 22/24/6 18/20/6 23/25/6
f 18/20/6 22/24/6 14/16/7
f 22/24/6 23/25/6 24/26/6
f 22/24/6 24/26/6 25/27/6
f 26/28/9 22/24/6 27/29/6
f 22/24/6 26/28/9 14/16/7
f 27/29/6 22/24/6 28/30/6
f 28/30/6 22/24/6 29/31/6
#o Carousel.670
v -0.138941 0.952954 0.031020
v 2.727757 0.928628 -2.768886
v 2.654075 0.952954 -2.696921
v -0.138941 0.928628 0.031020
v 2.727757 0.952954 -2.768886
v -0.134047 0.952955 -3.822829
v 0.888545 0.952955 -3.691371
v 1.841459 0.952954 -3.305894
v -0.139119 0.952954 0.030846
v -0.139119 0.952955 -3.822177
v -1.156632 0.952955 -3.691308
v -2.109521 0.952954 -3.305770
v -2.927575 0.952954 -2.692643
vt 0.460459 0.469735
vt 0.461375 0.582767
vt 0.460459 0.579871
vt 0.461375 0.469726
vt 0.460459 0.582776
vt 0.731829 0.206660
vt 0.812195 0.125758
vt 0.812195 0.239721
vt 0.755428 0.224688
vt 0.782909 0.235973
vt 0.812188 0.125758
vt 0.731740 0.206543
vt 0.713722 0.183119
vt 0.702340 0.155668
vt 0.698459 0.126186
vn -0.0118 -0.0000 0.9999
vn 0.9976 0.0000 0.0689
vn 0.4941 0.7071 0.5059
vn -0.0118 -0.0004 0.9999
vn 0.8101 0.5836 0.0558
vn 0.0000 1.0000 0.0000
vn 0.4979 0.7071 0.5022
usemtl STL
s 1
f 30/32/10 31/33/11 32/34/12
f 31/33/11 30/32/10 33/35/13
f 32/34/12 31/33/11 34/36/14
f 35/37/15 30/38/15 32/39/16
f 35/37/15 32/39/16 36/40/15
f 36/40/15 32/39/16 37/41/15
f 35/37/15 38/42/15 30/38/15
f 38/42/15 35/37/15 39/43/15
f 40/44/15 38/42/15 39/43/15
f 41/45/15 38/42/15 40/44/15
f 38/42/15 41/45/15 42/46/15
#o Carousel.676
v 2.567935 0.768298 -2.611751
v 2.613680 0.725208 -2.567074
v 2.567764 0.724473 -2.611751
v 2.613680 0.950253 -2.567073
v 2.521847 0.723738 -2.656428
v 2.522191 0.768298 -2.656429
v 2.522191 0.950253 -2.656429
v 2.567935 0.950253 -2.611750
v 1.720982 0.950253 -3.236333
v 1.720982 0.768297 -3.236333
v 0.793402 0.950254 -3.593938
v 1.720755 0.724333 -3.236301
v 0.793295 0.724945 -3.593912
v 0.793402 0.768298 -3.593939
v -0.135087 0.950254 -3.697910
v -0.135087 0.768299 -3.697910
v -0.135087 0.725498 -3.697910
v -0.199774 0.725498 -3.705156
v -0.199774 0.950254 -3.705156
v -1.186052 0.950254 -3.561929
v -1.186052 0.725497 -3.561929
v -2.100770 0.950253 -3.174258
v -2.100770 0.725497 -3.174258
v -2.832530 0.950253 -2.606625
v -2.832530 0.725497 -2.606626
v 3.207391 0.725306 -1.784641
v 3.207391 0.950253 -1.784641
v 3.573531 0.725406 -0.878785
v 3.680011 0.950253 0.027970
v 3.680011 0.725497 0.027970
v 3.573531 0.950253 -0.878785
v 3.687430 0.950253 0.091151
v 3.687430 0.725497 0.091151
v 3.540784 0.950253 1.054449
v 3.540784 0.725496 1.054449
v 3.143868 0.950253 1.947854
v 3.143868 0.725496 1.947854
v 2.562693 0.950253 2.662565
v 2.562693 0.725496 2.662565
vt 0.239823 0.543952
vt 0.241471 0.542172
vt 0.241473 0.543952
vt 0.232998 0.542195
vt 0.241475 0.545731
vt 0.239797 0.545727
vt 0.232947 0.545746
vt 0.232972 0.543971
vt 0.232773 0.574106
vt 0.239624 0.574087
vt 0.232998 0.602706
vt 0.241279 0.574088
vt 0.241481 0.602685
vt 0.239849 0.602687
vt 0.233568 0.627907
vt 0.240419 0.627888
vt 0.242030 0.627883
vt 0.242070 0.629639
vt 0.233608 0.629663
vt 0.234558 0.653010
vt 0.243020 0.652986
vt 0.942619 0.565629
vt 0.933940 0.586187
vt 0.934161 0.565946
vt 0.942398 0.585871
vt 0.934161 0.609476
vt 0.942619 0.609159
vt 0.242075 0.516398
vt 0.233605 0.516421
vt 0.243020 0.494792
vt 0.914331 0.511285
vt 0.905448 0.489482
vt 0.913915 0.489569
vt 0.905861 0.511198
vt 0.234555 0.494815
vt 0.905419 0.487969
vt 0.913886 0.488055
vt 0.905275 0.461162
vt 0.913742 0.461249
vt 0.905436 0.432548
vt 0.913903 0.432634
vt 0.905864 0.405865
vt 0.914331 0.405951
vn 0.6983 -0.0014 -0.7158
vn 0.7493 -0.0005 -0.6622
vn 0.6974 -0.0027 -0.7167
vn 0.5418 0.6913 -0.4781
vn 0.6436 -0.0045 -0.7654
vn 0.6444 -0.0025 -0.7647
vn 0.4660 0.6913 -0.5523
vn 0.4941 0.7071 -0.5058
vn 0.3508 0.6786 -0.6453
vn 0.4772 -0.0015 -0.8788
vn 0.1744 0.6784 -0.7137
vn 0.4768 -0.0031 -0.8790
vn 0.2373 -0.0012 -0.9714
vn 0.2375 -0.0006 -0.9714
vn 0.0787 0.7071 -0.7027
vn 0.1113 0.0000 -0.9938
vn -0.0163 0.0000 -0.9999
vn -0.0119 0.6791 -0.7340
vn -0.1975 0.6784 -0.7076
vn -0.2692 0.0000 -0.9631
vn -0.3715 0.6787 -0.6336
vn -0.5058 0.0000 -0.8627
vn -0.8186 0.5716 -0.0562
vn -0.9977 0.0000 -0.0684
vn 0.8695 0.0000 -0.4939
vn 0.6381 0.6794 -0.3622
vn 0.9688 0.0000 -0.2479
vn 0.7023 0.7071 -0.0824
vn 0.9932 0.0000 -0.1166
vn 0.7108 0.6795 -0.1817
vn 0.7331 0.6800 0.0129
vn 0.9999 0.0000 0.0171
vn 0.7039 0.6797 0.2063
vn 0.9598 0.0000 0.2808
vn 0.6254 0.6794 0.3838
vn 0.8523 0.0000 0.5230
vn 0.5109 0.6823 0.5228
vn 0.6989 0.0000 0.7152
usemtl STL
s 1
f 43/47/17 44/48/18 45/49/19
f 43/47/17 46/50/20 44/48/18
f 43/47/17 45/49/19 47/51/21
f 43/47/17 47/51/21 48/52/22
f 49/53/23 43/47/17 48/52/22
f 46/50/20 43/47/17 50/54/24
f 43/47/17 49/53/23 50/54/24
f 48/52/22 51/55/25 49/53/23
f 52/56/26 53/57/27 51/55/25
f 51/55/25 48/52/22 52/56/26
f 48/52/22 54/58/28 52/56/26
f 52/56/26 54/58/28 55/59/29
f 52/56/26 55/59/29 56/60/30
f 53/57/27 52/56/26 56/60/30
f 56/60/30 57/61/31 53/57/27
f 57/61/31 56/60/30 58/62/32
f 56/60/30 59/63/32 58/62/32
f 56/60/30 55/59/29 59/63/32
f 60/64/33 58/62/32 59/63/32
f 58/62/32 60/64/33 61/65/34
f 60/64/33 62/66/35 61/65/34
f 62/66/35 60/64/33 63/67/36
f 63/68/36 64/69/37 62/70/35
f 65/71/38 66/72/39 64/69/37
f 64/69/37 63/68/36 65/71/38
f 66/72/39 65/71/38 67/73/40
f 58/62/32 61/65/34 57/61/31
f 48/52/22 47/51/21 54/58/28
f 46/50/20 68/74/41 44/48/18
f 68/74/41 46/50/20 69/75/42
f 69/75/42 70/76/43 68/74/41
f 70/77/43 71/78/44 72/79/45
f 71/78/44 70/77/43 73/80/46
f 70/76/43 69/75/42 73/81/46
f 74/82/47 72/79/45 71/78/44
f 72/79/45 74/82/47 75/83/48
f 76/84/49 75/83/48 74/82/47
f 75/83/48 76/84/49 77/85/50
f 78/86/51 77/85/50 76/84/49
f 77/85/50 78/86/51 79/87/52
f 80/88/53 79/87/52 78/86/51
f 79/87/52 80/88/53 81/89/54
#o Carousel.677
v -2.791699 0.725497 2.712364
v -2.832196 0.950253 2.662565
v -2.832196 0.725497 2.662565
v -2.791699 0.950253 2.712365
v -2.883182 0.725497 2.623013
v -2.883182 0.950253 2.623013
v -3.476893 0.950253 1.840580
v -3.843033 0.950254 0.934724
v -3.476893 0.725497 1.840580
v -3.843033 0.725497 0.934724
v -3.949512 0.950253 0.027970
v -3.949512 0.725498 0.027970
v -3.956932 0.950254 -0.035211
v -3.956932 0.725498 -0.035212
v -3.810287 0.950254 -0.998510
v -3.810287 0.725497 -0.998510
v -3.413370 0.950253 -1.891915
v -3.413370 0.725497 -1.891915
v -2.832344 0.950253 -2.606443
v -2.832344 0.725497 -2.606444
v -2.832344 0.768298 -2.606444
v -1.990601 0.950253 3.292242
v -1.990601 0.725497 3.292242
v -1.063137 0.950252 3.649851
v -1.063137 0.725497 3.649851
v -0.134752 0.950252 3.753850
v -0.134752 0.725496 3.753849
vt 0.913743 0.167918
vt 0.905291 0.166273
vt 0.913759 0.166212
vt 0.905275 0.167978
vt 0.913760 0.164374
vt 0.905292 0.164435
vt 0.905575 0.138739
vt 0.906112 0.117249
vt 0.914043 0.138679
vt 0.914581 0.117188
vt 0.913844 0.084324
vt 0.922796 0.108280
vt 0.914332 0.108240
vt 0.922308 0.084364
vt 0.913810 0.082657
vt 0.922274 0.082698
vt 0.913639 0.054548
vt 0.922103 0.054588
vt 0.913828 0.025763
vt 0.922292 0.025803
vt 0.914332 0.000000
vt 0.922796 0.000040
vt 0.000000 0.000000
vt 0.000000 0.000000
vt 0.000000 0.000000
vt 0.905300 0.196305
vt 0.913768 0.196244
vt 0.905597 0.224917
vt 0.914065 0.224857
vt 0.906112 0.250172
vt 0.914581 0.250112
vn -0.6870 -0.0000 0.7267
vn -0.4758 0.7327 0.4865
vn -0.6989 -0.0000 0.7152
vn -0.5046 0.6789 0.5334
vn -0.7109 -0.0000 0.7033
vn -0.5219 0.6789 0.5164
vn -0.6380 0.6795 0.3623
vn -0.7106 0.6797 0.1819
vn -0.8695 0.0000 0.4939
vn -0.9688 -0.0000 0.2479
vn -0.7023 0.7071 0.0825
vn -0.9932 -0.0000 0.1166
vn -0.7331 0.6800 -0.0122
vn -0.9999 0.0000 -0.0171
vn -0.7040 0.6797 -0.2059
vn -0.9598 0.0000 -0.2808
vn -0.6253 0.6794 -0.3840
vn -0.8523 0.0000 -0.5230
vn -0.5692 0.6800 -0.4623
vn -0.7760 0.0000 -0.6308
vn 0.0000 1.0000 -0.0000
vn -0.3503 0.6786 0.6456
vn -0.4770 -0.0000 0.8789
vn -0.1748 0.6784 0.7136
vn -0.2375 -0.0000 0.9714
vn -0.0788 0.7071 0.7027
vn -0.1113 -0.0000 0.9938
usemtl STL
s 1
f 82/90/55 83/91/56 84/92/57
f 83/91/56 82/90/55 85/93/58
f 83/91/56 86/94/59 84/92/57
f 86/94/59 83/91/56 87/95/60
f 88/96/61 86/94/59 87/95/60
f 89/97/62 90/98/63 88/96/61
f 86/94/59 88/96/61 90/98/63
f 90/98/63 89/97/62 91/99/64
f 92/100/65 91/101/64 89/102/62
f 91/101/64 92/100/65 93/103/66
f 94/104/67 93/103/66 92/100/65
f 93/103/66 94/104/67 95/105/68
f 96/106/69 95/105/68 94/104/67
f 95/105/68 96/106/69 97/107/70
f 98/108/71 97/107/70 96/106/69
f 97/107/70 98/108/71 99/109/72
f 100/110/73 99/109/72 98/108/71
f 99/109/72 100/110/73 101/111/74
f 101/112/74 100/113/73 102/114/75
f 82/90/55 103/115/76 85/93/58
f 104/116/77 105/117/78 103/115/76
f 103/115/76 82/90/55 104/116/77
f 105/117/78 104/116/77 106/118/79
f 107/119/80 106/118/79 108/120/81
f 106/118/79 107/119/80 105/117/78
#o Carousel.679
v -0.018106 0.695789 3.249931
v 0.037342 0.946061 3.256246
v -0.018106 0.946061 3.249931
v 0.037342 0.695789 3.256246
v 0.882726 0.946062 3.131441
v 0.882726 0.695791 3.131440
v 1.666773 0.946062 2.793639
v 1.666773 0.695791 2.793640
v 2.293998 0.946061 2.299023
v 2.293998 0.695790 2.299023
vt 0.110874 0.942941
vt 0.102388 0.944493
vt 0.102408 0.942733
vt 0.110854 0.944701
vt 0.102408 0.967952
vt 0.110874 0.968161
vt 0.936661 0.423424
vt 0.928031 0.446724
vt 0.928196 0.423612
vt 0.936496 0.446537
vt 0.928196 0.471810
vt 0.936661 0.471623
vn -0.1132 -0.0000 0.9936
vn 0.0121 0.6787 0.7343
vn -0.0798 0.7071 0.7026
vn 0.0166 -0.0000 0.9999
vn 0.2007 0.6787 0.7065
vn 0.2732 -0.0000 0.9620
vn 0.3757 0.6788 0.6310
vn 0.5118 0.0000 0.8591
vn 0.5151 0.6823 0.5187
vn 0.7046 0.0000 0.7096
usemtl STL
s 1
f 109/121/82 110/122/83 111/123/84
f 110/122/83 109/121/82 112/124/85
f 112/124/85 113/125/86 110/122/83
f 113/125/86 112/124/85 114/126/87
f 114/127/87 115/128/88 113/129/86
f 115/128/88 114/127/87 116/130/89
f 116/130/89 117/131/90 115/128/88
f 117/131/90 116/130/89 118/132/91
#o Carousel.688
v -4.238247 0.725497 1.162972
v -4.274308 0.725497 -0.994287
v -3.864842 0.725497 -2.006206
v -4.401670 0.725498 0.086662
v -3.949512 0.725498 0.018621
v -3.819528 0.725497 0.982950
v -3.201177 0.725497 -2.880136
v -3.438431 0.725497 1.881561
v -2.832196 0.725497 2.653216
v -2.832344 0.725497 -2.615792
v -2.328541 0.725497 -3.556521
v -2.832196 0.725497 -2.615974
v -0.135086 0.725498 0.018295
v -1.306400 0.725498 -3.989267
v -0.204414 0.725498 -4.148880
v 0.902319 0.725498 -4.024487
v -0.135086 0.725498 0.018621
v -0.134752 0.725496 3.744501
v 0.852581 0.725497 3.617545
v 1.772630 0.725497 3.245328
v 1.938379 0.725497 -3.624562
v -1.122084 0.725497 3.617545
v -0.065088 0.725496 4.186122
v -1.063137 0.725497 3.640502
v -0.070063 0.725496 3.751748
v 0.916214 0.725497 3.608518
v 1.036897 0.725496 4.026508
v 1.830932 0.725497 3.220850
v 2.059037 0.725496 3.593764
v 2.562693 0.725496 2.653216
v 2.931675 0.725496 2.917379
v 3.143868 0.725496 1.938506
v 3.595340 0.725496 2.043447
v 3.540784 0.725496 1.045101
v 3.687430 0.725497 0.081802
v 4.004805 0.725496 1.031529
v 3.680011 0.725497 0.018621
v 3.968745 0.725497 -1.125729
v 3.525675 0.725497 -2.124053
v 4.132168 0.725497 -0.049418
v 3.168930 0.725496 1.881561
v 2.833157 0.725497 -2.976360
v 3.550026 0.725496 0.982950
v -1.171822 0.725496 4.061729
v -1.990601 0.725497 3.282893
v -2.207881 0.725497 3.661803
v -2.791699 0.725497 2.703016
v -2.883182 0.725497 2.613664
v -3.102659 0.725497 3.013602
v -3.476893 0.725497 1.831231
v -3.795180 0.725497 2.161296
v -3.843033 0.725497 0.925376
v -2.042132 0.725497 3.245328
vt 0.008300 0.419590
vt 0.000000 0.356277
vt 0.008300 0.325181
vt 0.000000 0.388479
vt 0.012702 0.384995
vt 0.019669 0.412923
vt 0.024335 0.297307
vt 0.033595 0.438095
vt 0.053533 0.458796
vt 0.035774 0.303870
vt 0.047012 0.274557
vt 0.035778 0.303864
vt 0.121787 0.372473
vt 0.074785 0.258480
vt 0.105763 0.250172
vt 0.137833 0.250200
vt 0.121788 0.372483
vt 0.134353 0.482035
vt 0.162161 0.475063
vt 0.187219 0.461101
vt 0.168810 0.258560
vt 0.105689 0.481541
vt 0.137833 0.494792
vt 0.107452 0.482022
vt 0.136227 0.482036
vt 0.163950 0.474589
vt 0.168810 0.486484
vt 0.188803 0.460190
vt 0.196583 0.470407
vt 0.207818 0.441100
vt 0.219260 0.447657
vt 0.222030 0.418178
vt 0.235295 0.419783
vt 0.230371 0.390608
vt 0.231319 0.361802
vt 0.243595 0.388686
vt 0.230894 0.359969
vt 0.235295 0.325374
vt 0.219260 0.297474
vt 0.243595 0.356485
vt 0.222555 0.416422
vt 0.196583 0.274685
vt 0.230426 0.388750
vt 0.105763 0.494764
vt 0.079723 0.474550
vt 0.074786 0.486403
vt 0.054859 0.460127
vt 0.051941 0.457800
vt 0.047012 0.470279
vt 0.032326 0.436741
vt 0.024335 0.447490
vt 0.018802 0.411307
vt 0.078123 0.473614
vn -0.0000 -1.0000 -0.0000
usemtl STL
s 1
f 119/133/92 120/134/92 121/135/92
f 120/134/92 119/133/92 122/136/92
f 119/133/92 121/135/92 123/137/92
f 123/137/92 121/135/92 124/138/92
f 124/138/92 121/135/92 125/139/92
f 124/138/92 125/139/92 126/140/92
f 126/140/92 125/139/92 127/141/92
f 127/141/92 125/139/92 128/142/92
f 129/143/92 128/142/92 125/139/92
f 128/142/92 129/143/92 130/144/92
f 130/144/92 129/143/92 131/145/92
f 131/145/92 129/143/92 132/146/92
f 131/145/92 132/146/92 133/147/92
f 131/145/92 133/147/92 134/148/92
f 131/145/92 134/148/92 135/149/92
f 135/149/92 134/148/92 136/150/92
f 137/151/92 134/148/92 138/152/92
f 136/150/92 134/148/92 137/151/92
f 138/152/92 134/148/92 139/153/92
f 140/154/92 135/149/92 136/150/92
f 141/155/92 142/156/92 136/150/92
f 141/155/92 136/150/92 143/157/92
f 141/155/92 143/157/92 144/158/92
f 141/155/92 144/158/92 145/159/92
f 145/159/92 144/158/92 146/160/92
f 147/161/92 146/160/92 148/162/92
f 145/159/92 146/160/92 147/161/92
f 147/161/92 148/162/92 149/163/92
f 149/163/92 148/162/92 150/164/92
f 149/163/92 150/164/92 151/165/92
f 151/165/92 150/164/92 152/166/92
f 151/165/92 152/166/92 153/167/92
f 151/165/92 153/167/92 154/168/92
f 155/169/92 156/170/92 153/167/92
f 154/168/92 153/167/92 156/170/92
f 155/169/92 157/171/92 156/170/92
f 154/168/92 156/170/92 158/172/92
f 159/173/92 160/174/92 157/171/92
f 159/173/92 157/171/92 161/175/92
f 161/175/92 157/171/92 155/169/92
f 148/162/92 160/174/92 159/173/92
f 148/162/92 139/153/92 160/174/92
f 138/152/92 139/153/92 148/162/92
f 162/176/92 142/156/92 141/155/92
f 162/176/92 163/177/92 142/156/92
f 164/178/92 163/177/92 162/176/92
f 164/178/92 165/179/92 163/177/92
f 164/178/92 127/141/92 165/179/92
f 164/178/92 166/180/92 127/141/92
f 167/181/92 166/180/92 164/178/92
f 167/181/92 168/182/92 166/180/92
f 169/183/92 168/182/92 167/181/92
f 169/183/92 170/184/92 168/182/92
f 169/183/92 123/137/92 170/184/92
f 123/137/92 169/183/92 119/133/92
f 171/185/92 135/149/92 140/154/92
f 127/141/92 135/149/92 171/185/92
f 127/141/92 128/142/92 135/149/92
