# Blender v3.4.1 OBJ File: ''
# www.blender.org
mtllib floor6.mtl
#o base3
v -1.737261 0.923641 0.552565
v -12.502569 0.947969 -10.475990
v -1.737261 0.947967 0.552565
v -12.502569 0.923644 -10.475990
v -12.209579 0.947969 -10.175832
v -14.567390 0.947968 -7.027723
v -16.049522 0.947968 -3.361716
v -16.552425 0.947967 0.552565
v -16.049276 0.947966 4.506405
v -16.554960 0.947967 0.572363
v -14.566921 0.947966 8.172318
v -12.225276 0.947964 11.298424
v -12.208911 0.947964 11.320272
v -1.735924 0.947967 0.552565
v -9.135945 0.947964 13.735744
v -5.557442 0.947964 15.254119
v -1.735924 0.947963 15.769405
v 8.774090 0.947964 11.319591
v -1.717268 0.947963 15.771923
v 2.122866 0.947963 15.253862
v 5.701283 0.947964 13.735259
v 13.117061 0.947967 0.552565
v 11.131905 0.947966 8.171478
v 12.614038 0.947966 4.505476
v 13.119482 0.947967 0.571394
v 8.752853 0.947969 -10.192691
v 8.773424 0.947969 -10.176517
v 11.131435 0.947968 -7.028566
v 12.613787 0.947968 -3.362650
v -1.720249 0.952954 0.389419
v 9.045137 0.928630 -10.639219
v 8.768437 0.952956 -10.355755
v -1.720249 0.928628 0.389419
v 9.045137 0.952956 -10.639219
v -1.701871 0.952957 -14.790628
v 2.138296 0.952957 -14.272824
v 5.716800 0.952956 -12.754457
v -1.720918 0.952954 0.388734
v -1.720918 0.952957 -14.788060
v -5.542011 0.952957 -14.272576
v -9.120420 0.952956 -12.753968
v -12.192481 0.952956 -10.338903
v 8.444954 0.768300 -10.020276
v 8.616741 0.725210 -9.844296
v 8.444312 0.724475 -10.020276
v 8.616741 0.950255 -9.844292
v 8.271878 0.723740 -10.196256
v 8.273170 0.768300 -10.196259
v 8.273170 0.950255 -10.196259
v 8.444954 0.950255 -10.020271
v 5.264369 0.950255 -12.480460
v 5.264369 0.768299 -12.480460
v 1.781003 0.950256 -13.889043
v 5.263516 0.724335 -12.480334
v 1.780602 0.724947 -13.888940
v 1.781003 0.768300 -13.889047
v -1.705776 0.950256 -14.298581
v -1.705776 0.768301 -14.298581
v -1.705776 0.725500 -14.298581
v -1.948697 0.725500 -14.327123
v -1.948697 0.950256 -14.327123
v -5.652493 0.950256 -13.762961
v -5.652493 0.725499 -13.762961
v -9.087558 0.950255 -12.235951
v -9.087558 0.725499 -12.235951
v -11.835556 0.950255 -10.000085
v -11.835556 0.725499 -10.000089
v 10.846320 0.725307 -6.762346
v 10.846320 0.950254 -6.762346
v 12.221294 0.725407 -3.194241
v 12.621162 0.950253 0.377405
v 12.621162 0.725497 0.377405
v 12.221294 0.950254 -3.194241
v 12.649023 0.950253 0.626271
v 12.649023 0.725497 0.626271
v 12.098319 0.950252 4.420635
v 12.098319 0.725495 4.420635
v 10.607770 0.950252 7.939696
v 10.607770 0.725495 7.939696
v 8.425269 0.950251 10.754894
v 8.425269 0.725494 10.754894
v -11.682221 0.725495 10.951049
v -11.834301 0.950251 10.754894
v -11.834301 0.725495 10.754894
v -11.682221 0.950251 10.951053
v -12.025770 0.725495 10.599101
v -12.025770 0.950251 10.599101
v -14.255349 0.950252 7.517151
v -15.630324 0.950253 3.949047
v -14.255349 0.725496 7.517151
v -15.630324 0.725496 3.949047
v -16.030188 0.950253 0.377405
v -16.030188 0.725498 0.377405
v -16.058052 0.950254 0.128540
v -16.058052 0.725498 0.128536
v -15.507353 0.950255 -3.665829
v -15.507353 0.725498 -3.665829
v -14.016799 0.950254 -7.184890
v -14.016799 0.725498 -7.184890
v -11.834857 0.950255 -9.999367
v -11.834857 0.725499 -9.999371
v -11.834857 0.768300 -9.999371
v -8.673837 0.950251 13.235148
v -8.673837 0.725495 13.235148
v -5.190907 0.950250 14.643746
v -5.190907 0.725495 14.643746
v -1.704518 0.950250 15.053391
v -1.704518 0.725494 15.053387
v -1.266474 0.695787 13.068489
v -1.058249 0.946059 13.093363
v -1.266474 0.946059 13.068489
v -1.058249 0.695787 13.093363
v 2.116444 0.946060 12.601765
v 2.116444 0.695789 12.601760
v 5.060797 0.946060 11.271185
v 5.060797 0.695789 11.271189
v 7.416231 0.946060 9.322927
v 7.416231 0.695789 9.322927
v -17.114481 0.725496 4.848100
v -17.249903 0.725498 -3.649195
v -15.712224 0.725498 -7.635075
v -17.728189 0.725498 0.608589
v -16.030188 0.725498 0.340580
v -15.542056 0.725496 4.139006
v -13.219945 0.725499 -11.077425
v -14.110911 0.725496 7.678573
v -11.834301 0.725495 10.718068
v -11.834857 0.725499 -10.036193
v -9.942912 0.725499 -13.741659
v -11.834301 0.725499 -10.036909
v -1.705772 0.725498 0.339296
v -6.104439 0.725501 -15.446217
v -1.966122 0.725501 -16.074921
v 2.190022 0.725501 -15.584946
v -1.705772 0.725498 0.340580
v -1.704518 0.725494 15.016566
v 2.003240 0.725495 14.516495
v 5.458324 0.725495 13.050357
v 6.080766 0.725499 -14.009668
v -5.412272 0.725495 14.516495
v -1.442907 0.725493 16.756081
v -5.190907 0.725495 14.606920
v -1.461590 0.725494 15.045112
v 2.242202 0.725495 14.480938
v 2.695406 0.725493 16.127373
v 5.677267 0.725495 12.953940
v 6.533875 0.725494 14.422823
v 8.425269 0.725494 10.718068
v 9.810916 0.725494 11.758589
v 10.607770 0.725495 7.902875
v 12.303195 0.725495 8.316231
v 12.098319 0.725495 4.383814
v 12.649023 0.725497 0.589446
v 13.840870 0.725495 4.330355
v 12.621162 0.725497 0.340580
v 13.705453 0.725498 -4.166936
v 12.041580 0.725498 -8.099266
v 14.319159 0.725497 0.072579
v 10.701886 0.725495 7.678573
v 9.440949 0.725499 -11.456446
v 12.133026 0.725495 4.139006
v -5.599054 0.725493 16.266106
v -8.673837 0.725495 13.198323
v -9.489795 0.725495 14.690824
v -11.682221 0.725495 10.914227
v -12.025770 0.725495 10.562276
v -12.849978 0.725495 12.137605
v -14.255349 0.725496 7.480326
v -15.450621 0.725496 8.780429
v -15.630324 0.725496 3.912226
v -8.867352 0.725495 13.050357
vt 0.242858 0.802542
vt 0.241943 0.913822
vt 0.241943 0.802558
vt 0.242858 0.913806
vt 0.114294 0.608713
vt 0.196040 0.692342
vt 0.193815 0.690066
vt 0.169937 0.707836
vt 0.142257 0.718841
vt 0.112811 0.722313
vt 0.083168 0.718067
vt 0.112662 0.722331
vt 0.055786 0.706341
vt 0.032544 0.688079
vt 0.032381 0.687951
vt 0.114294 0.608703
vt 0.014549 0.664151
vt 0.003504 0.636563
vt 0.000017 0.607210
vt 0.034487 0.527057
vt 0.000000 0.607066
vt 0.004275 0.577671
vt 0.016038 0.550382
vt 0.115781 0.494812
vt 0.058365 0.509286
vt 0.086044 0.498281
vt 0.115640 0.494792
vt 0.196040 0.529330
vt 0.195920 0.529171
vt 0.172515 0.510781
vt 0.145133 0.499055
vt 0.460459 0.469735
vt 0.461375 0.582767
vt 0.460459 0.579871
vt 0.461375 0.469726
vt 0.460459 0.582776
vt 0.731829 0.206660
vt 0.812195 0.125758
vt 0.812195 0.239721
vt 0.755428 0.224688
vt 0.782909 0.235973
vt 0.812188 0.125758
vt 0.731740 0.206543
vt 0.713722 0.183119
vt 0.702340 0.155668
vt 0.698459 0.126186
vt 0.239823 0.543952
vt 0.241471 0.542172
vt 0.241473 0.543952
vt 0.232998 0.542195
vt 0.241475 0.545731
vt 0.239797 0.545727
vt 0.232947 0.545746
vt 0.232972 0.543971
vt 0.232773 0.574106
vt 0.239624 0.574087
vt 0.232998 0.602706
vt 0.241279 0.574088
vt 0.241481 0.602685
vt 0.239849 0.602687
vt 0.233568 0.627907
vt 0.240419 0.627888
vt 0.242030 0.627883
vt 0.242070 0.629639
vt 0.233608 0.629663
vt 0.234558 0.653010
vt 0.243020 0.652986
vt 0.942619 0.565629
vt 0.933940 0.586187
vt 0.934161 0.565946
vt 0.942398 0.585871
vt 0.934161 0.609476
vt 0.942619 0.609159
vt 0.242075 0.516398
vt 0.233605 0.516421
vt 0.243020 0.494792
vt 0.914331 0.511285
vt 0.905448 0.489482
vt 0.913915 0.489569
vt 0.905861 0.511198
vt 0.234555 0.494815
vt 0.905419 0.487969
vt 0.913886 0.488055
vt 0.905275 0.461162
vt 0.913742 0.461249
vt 0.905436 0.432548
vt 0.913903 0.432634
vt 0.905864 0.405865
vt 0.914331 0.405951
vt 0.913743 0.167918
vt 0.905291 0.166273
vt 0.913759 0.166212
vt 0.905275 0.167978
vt 0.913760 0.164374
vt 0.905292 0.164435
vt 0.905575 0.138739
vt 0.906112 0.117249
vt 0.914043 0.138679
vt 0.914581 0.117188
vt 0.913844 0.084324
vt 0.922796 0.108280
vt 0.914332 0.108240
vt 0.922308 0.084364
vt 0.913810 0.082657
vt 0.922274 0.082698
vt 0.913639 0.054548
vt 0.922103 0.054588
vt 0.913828 0.025763
vt 0.922292 0.025803
vt 0.914332 0.000000
vt 0.922796 0.000040
vt 0.000000 0.000000
vt 0.000000 0.000000
vt 0.000000 0.000000
vt 0.905300 0.196305
vt 0.913768 0.196244
vt 0.905597 0.224917
vt 0.914065 0.224857
vt 0.906112 0.250172
vt 0.914581 0.250112
vt 0.110874 0.942941
vt 0.102388 0.944493
vt 0.102408 0.942733
vt 0.110854 0.944701
vt 0.102408 0.967952
vt 0.110874 0.968161
vt 0.936661 0.423424
vt 0.928031 0.446724
vt 0.928196 0.423612
vt 0.936496 0.446537
vt 0.928196 0.471810
vt 0.936661 0.471623
vt 0.008300 0.419590
vt 0.000000 0.356277
vt 0.008300 0.325181
vt 0.000000 0.388479
vt 0.012702 0.384995
vt 0.019669 0.412923
vt 0.024335 0.297307
vt 0.033595 0.438095
vt 0.053533 0.458796
vt 0.035774 0.303870
vt 0.047012 0.274557
vt 0.035778 0.303864
vt 0.121787 0.372473
vt 0.074785 0.258480
vt 0.105763 0.250172
vt 0.137833 0.250200
vt 0.121788 0.372483
vt 0.134353 0.482035
vt 0.162161 0.475063
vt 0.187219 0.461101
vt 0.168810 0.258560
vt 0.105689 0.481541
vt 0.137833 0.494792
vt 0.107452 0.482022
vt 0.136227 0.482036
vt 0.163950 0.474589
vt 0.168810 0.486484
vt 0.188803 0.460190
vt 0.196583 0.470407
vt 0.207818 0.441100
vt 0.219260 0.447657
vt 0.222030 0.418178
vt 0.235295 0.419783
vt 0.230371 0.390608
vt 0.231319 0.361802
vt 0.243595 0.388686
vt 0.230894 0.359969
vt 0.235295 0.325374
vt 0.219260 0.297474
vt 0.243595 0.356485
vt 0.222555 0.416422
vt 0.196583 0.274685
vt 0.230426 0.388750
vt 0.105763 0.494764
vt 0.079723 0.474550
vt 0.074786 0.486403
vt 0.054859 0.460127
vt 0.051941 0.457800
vt 0.047012 0.470279
vt 0.032326 0.436741
vt 0.024335 0.447490
vt 0.018802 0.411307
vt 0.078123 0.473614
vn 0.3802 0.2612 -0.8873
vn 0.7156 0.0000 -0.6985
vn 0.3937 0.0002 -0.9192
vn 0.8112 0.5836 -0.0364
vn -0.7128 0.4014 0.5751
vn -0.0000 1.0000 0.0000
vn -0.5020 0.7071 -0.4980
vn 0.0121 -0.0000 0.9999
vn 0.9990 0.0000 0.0451
vn 0.5060 0.7071 0.4939
vn 0.0121 -0.0004 0.9999
vn 0.8112 0.5836 0.0365
vn 0.5022 0.7071 0.4979
vn 0.7150 -0.0052 -0.6991
vn 0.7649 -0.0006 -0.6442
vn 0.7143 -0.0104 -0.6998
vn 0.5511 0.6937 -0.4638
vn 0.6609 -0.0187 -0.7502
vn 0.6623 -0.0096 -0.7492
vn 0.4768 0.6943 -0.5390
vn 0.5061 0.7071 -0.4938
vn 0.3629 0.6796 -0.6376
vn 0.4947 -0.0060 -0.8691
vn 0.1818 0.6799 -0.7104
vn 0.4930 -0.0121 -0.8700
vn 0.2473 -0.0047 -0.9689
vn 0.2483 -0.0023 -0.9687
vn 0.0825 0.7071 -0.7023
vn 0.1167 0.0000 -0.9932
vn -0.0171 0.0000 -0.9999
vn -0.0125 0.6854 -0.7280
vn -0.2057 0.6800 -0.7038
vn -0.2809 0.0000 -0.9597
vn -0.3837 0.6796 -0.6252
vn -0.5232 0.0000 -0.8522
vn -0.8197 0.5716 -0.0371
vn -0.9990 0.0000 -0.0452
vn 0.8790 0.0000 -0.4768
vn 0.6455 0.6789 -0.3500
vn 0.9714 0.0000 -0.2374
vn 0.7027 0.7071 -0.0786
vn 0.9938 -0.0000 -0.1113
vn 0.7139 0.6783 -0.1741
vn 0.7295 0.6838 0.0123
vn 0.9999 0.0000 0.0163
vn 0.7072 0.6787 0.1981
vn 0.9631 0.0000 0.2690
vn 0.6333 0.6789 0.3714
vn 0.8628 0.0000 0.5056
vn 0.5230 0.6823 0.5108
vn 0.7154 0.0000 0.6988
vn -0.7035 -0.0000 0.7107
vn -0.4931 0.7248 0.4811
vn -0.7154 0.0000 0.6987
vn -0.5168 0.6789 0.5215
vn -0.7269 0.0000 0.6868
vn -0.5337 0.6789 0.5043
vn -0.6454 0.6789 0.3500
vn -0.7135 0.6786 0.1744
vn -0.8790 0.0000 0.4768
vn -0.9714 -0.0000 0.2374
vn -0.7027 0.7071 0.0787
vn -0.9938 -0.0000 0.1113
vn -0.7295 0.6839 -0.0116
vn -0.9999 0.0000 -0.0163
vn -0.7074 0.6787 -0.1974
vn -0.9631 0.0000 -0.2690
vn -0.6333 0.6789 -0.3715
vn -0.8628 0.0000 -0.5056
vn -0.5798 0.6800 -0.4489
vn -0.7903 0.0000 -0.6127
vn -0.3623 0.6796 0.6378
vn -0.4941 0.0000 0.8694
vn -0.1821 0.6800 0.7102
vn -0.2480 -0.0000 0.9688
vn -0.0825 0.7071 0.7023
vn -0.1167 -0.0000 0.9932
vn -0.1186 0.0000 0.9929
vn 0.0127 0.6847 0.7288
vn -0.0836 0.7071 0.7022
vn 0.0174 -0.0000 0.9998
vn 0.2092 0.6804 0.7024
vn 0.2850 -0.0000 0.9585
vn 0.3879 0.6799 0.6224
vn 0.5293 0.0000 0.8484
vn 0.5271 0.6823 0.5066
vn 0.7210 0.0000 0.6930
vn 0.0000 -1.0000 -0.0000
usemtl STL
s 1
f 1/1/1 2/2/2 3/3/3
f 2/2/2 1/1/1 4/4/4
f 3/5/3 2/6/2 5/7/5
f 6/8/6 3/5/6 5/7/6
f 7/9/6 3/5/6 6/8/6
f 3/5/6 7/9/6 8/10/6
f 8/10/6 9/11/6 3/5/6
f 9/11/6 8/10/6 10/12/6
f 3/5/6 9/11/6 11/13/6
f 3/5/6 11/13/6 12/14/6
f 13/15/6 14/16/6 12/14/6
f 3/5/6 12/14/6 14/16/6
f 14/16/6 13/15/6 15/17/6
f 14/16/6 15/17/6 16/18/6
f 14/16/6 16/18/6 17/19/6
f 17/19/6 18/20/6 14/16/6
f 18/20/6 17/19/6 19/21/6
f 18/20/6 19/21/6 20/22/6
f 18/20/6 20/22/6 21/23/6
f 22/24/6 18/20/6 23/25/6
f 18/20/6 22/24/6 14/16/6
f 22/24/6 23/25/6 24/26/6
f 22/24/6 24/26/6 25/27/6
f 26/28/7 22/24/6 27/29/6
f 22/24/6 26/28/7 14/16/6
f 27/29/6 22/24/6 28/30/6
f 28/30/6 22/24/6 29/31/6
f 30/32/8 31/33/9 32/34/10
f 31/33/9 30/32/8 33/35/11
f 32/34/10 31/33/9 34/36/12
f 35/37/6 30/38/6 32/39/13
f 35/37/6 32/39/13 36/40/6
f 36/40/6 32/39/13 37/41/6
f 35/37/6 38/42/6 30/38/6
f 38/42/6 35/37/6 39/43/6
f 40/44/6 38/42/6 39/43/6
f 41/45/6 38/42/6 40/44/6
f 38/42/6 41/45/6 42/46/6
f 43/47/14 44/48/15 45/49/16
f 43/47/14 46/50/17 44/48/15
f 43/47/14 45/49/16 47/51/18
f 43/47/14 47/51/18 48/52/19
f 49/53/20 43/47/14 48/52/19
f 46/50/17 43/47/14 50/54/21
f 43/47/14 49/53/20 50/54/21
f 48/52/19 51/55/22 49/53/20
f 52/56/23 53/57/24 51/55/22
f 51/55/22 48/52/19 52/56/23
f 48/52/19 54/58/25 52/56/23
f 52/56/23 54/58/25 55/59/26
f 52/56/23 55/59/26 56/60/27
f 53/57/24 52/56/23 56/60/27
f 56/60/27 57/61/28 53/57/24
f 57/61/28 56/60/27 58/62/29
f 56/60/27 59/63/29 58/62/29
f 56/60/27 55/59/26 59/63/29
f 60/64/30 58/62/29 59/63/29
f 58/62/29 60/64/30 61/65/31
f 60/64/30 62/66/32 61/65/31
f 62/66/32 60/64/30 63/67/33
f 63/68/33 64/69/34 62/70/32
f 65/71/35 66/72/36 64/69/34
f 64/69/34 63/68/33 65/71/35
f 66/72/36 65/71/35 67/73/37
f 58/62/29 61/65/31 57/61/28
f 48/52/19 47/51/18 54/58/25
f 46/50/17 68/74/38 44/48/15
f 68/74/38 46/50/17 69/75/39
f 69/75/39 70/76/40 68/74/38
f 70/77/40 71/78/41 72/79/42
f 71/78/41 70/77/40 73/80/43
f 70/76/40 69/75/39 73/81/43
f 74/82/44 72/79/42 71/78/41
f 72/79/42 74/82/44 75/83/45
f 76/84/46 75/83/45 74/82/44
f 75/83/45 76/84/46 77/85/47
f 78/86/48 77/85/47 76/84/46
f 77/85/47 78/86/48 79/87/49
f 80/88/50 79/87/49 78/86/48
f 79/87/49 80/88/50 81/89/51
f 82/90/52 83/91/53 84/92/54
f 83/91/53 82/90/52 85/93/55
f 83/91/53 86/94/56 84/92/54
f 86/94/56 83/91/53 87/95/57
f 88/96/58 86/94/56 87/95/57
f 89/97/59 90/98/60 88/96/58
f 86/94/56 88/96/58 90/98/60
f 90/98/60 89/97/59 91/99/61
f 92/100/62 91/101/61 89/102/59
f 91/101/61 92/100/62 93/103/63
f 94/104/64 93/103/63 92/100/62
f 93/103/63 94/104/64 95/105/65
f 96/106/66 95/105/65 94/104/64
f 95/105/65 96/106/66 97/107/67
f 98/108/68 97/107/67 96/106/66
f 97/107/67 98/108/68 99/109/69
f 100/110/70 99/109/69 98/108/68
f 99/109/69 100/110/70 101/111/71
f 101/112/71 100/113/70 102/114/6
f 82/90/52 103/115/72 85/93/55
f 104/116/73 105/117/74 103/115/72
f 103/115/72 82/90/52 104/116/73
f 105/117/74 104/116/73 106/118/75
f 107/119/76 106/118/75 108/120/77
f 106/118/75 107/119/76 105/117/74
f 109/121/78 110/122/79 111/123/80
f 110/122/79 109/121/78 112/124/81
f 112/124/81 113/125/82 110/122/79
f 113/125/82 112/124/81 114/126/83
f 114/127/83 115/128/84 113/129/82
f 115/128/84 114/127/83 116/130/85
f 116/130/85 117/131/86 115/128/84
f 117/131/86 116/130/85 118/132/87
f 119/133/88 120/134/88 121/135/88
f 120/134/88 119/133/88 122/136/88
f 119/133/88 121/135/88 123/137/88
f 123/137/88 121/135/88 124/138/88
f 124/138/88 121/135/88 125/139/88
f 124/138/88 125/139/88 126/140/88
f 126/140/88 125/139/88 127/141/88
f 127/141/88 125/139/88 128/142/88
f 129/143/88 128/142/88 125/139/88
f 128/142/88 129/143/88 130/144/88
f 130/144/88 129/143/88 131/145/88
f 131/145/88 129/143/88 132/146/88
f 131/145/88 132/146/88 133/147/88
f 131/145/88 133/147/88 134/148/88
f 131/145/88 134/148/88 135/149/88
f 135/149/88 134/148/88 136/150/88
f 137/151/88 134/148/88 138/152/88
f 136/150/88 134/148/88 137/151/88
f 138/152/88 134/148/88 139/153/88
f 140/154/88 135/149/88 136/150/88
f 141/155/88 142/156/88 136/150/88
f 141/155/88 136/150/88 143/157/88
f 141/155/88 143/157/88 144/158/88
f 141/155/88 144/158/88 145/159/88
f 145/159/88 144/158/88 146/160/88
f 147/161/88 146/160/88 148/162/88
f 145/159/88 146/160/88 147/161/88
f 147/161/88 148/162/88 149/163/88
f 149/163/88 148/162/88 150/164/88
f 149/163/88 150/164/88 151/165/88
f 151/165/88 150/164/88 152/166/88
f 151/165/88 152/166/88 153/167/88
f 151/165/88 153/167/88 154/168/88
f 155/169/88 156/170/88 153/167/88
f 154/168/88 153/167/88 156/170/88
f 155/169/88 157/171/88 156/170/88
f 154/168/88 156/170/88 158/172/88
f 159/173/88 160/174/88 157/171/88
f 159/173/88 157/171/88 161/175/88
f 161/175/88 157/171/88 155/169/88
f 148/162/88 160/174/88 159/173/88
f 148/162/88 139/153/88 160/174/88
f 138/152/88 139/153/88 148/162/88
f 162/176/88 142/156/88 141/155/88
f 162/176/88 163/177/88 142/156/88
f 164/178/88 163/177/88 162/176/88
f 164/178/88 165/179/88 163/177/88
f 164/178/88 127/141/88 165/179/88
f 164/178/88 166/180/88 127/141/88
f 167/181/88 166/180/88 164/178/88
f 167/181/88 168/182/88 166/180/88
f 169/183/88 168/182/88 167/181/88
f 169/183/88 170/184/88 168/182/88
f 169/183/88 123/137/88 170/184/88
f 123/137/88 169/183/88 119/133/88
f 171/185/88 135/149/88 140/154/88
f 127/141/88 135/149/88 171/185/88
f 127/141/88 128/142/88 135/149/88
