# Blender 3.4.1
# www.blender.org
mtllib floor1.mtl
#o Carousel.669
v -2.386635 0.946054 -2.380262
v -0.003631 0.919734 0.002743
v -2.386635 0.919735 -2.380262
v -0.003631 0.946054 0.002743
v -2.321779 0.946054 -2.315405
v -2.843703 0.946054 -1.635175
v -3.171788 0.946054 -0.843039
v -3.283110 0.946054 0.002743
v -3.171733 0.946054 0.857072
v -3.283671 0.946054 0.007020
v -2.843599 0.946054 1.649187
v -2.325254 0.946054 2.324663
v -0.003335 0.946054 0.002743
v -2.321631 0.946054 2.329384
v -1.641401 0.946054 2.851309
v -0.849265 0.946054 3.179393
v -0.003335 0.946053 3.290734
v 2.323157 0.946054 2.329237
v 0.000794 0.946053 3.291278
v 0.850845 0.946053 3.179338
v 1.642961 0.946054 2.851204
v 3.284515 0.946054 0.002743
v 2.845082 0.946054 1.649006
v 3.173166 0.946054 0.856871
v 3.285051 0.946054 0.006811
v 2.318456 0.946054 -2.319048
v 2.323010 0.946054 -2.315553
v 2.844978 0.946054 -1.635357
v 3.173111 0.946054 -0.843241
vn 0.3694 0.2612 -0.8918
vn 0.7071 -0.0000 -0.7071
vn 0.3826 0.0002 -0.9239
vn 0.8107 0.5836 -0.0463
vn -0.6918 0.4100 0.5944
vn -0.0000 1.0000 -0.0000
vn -0.0000 1.0000 -0.0007
vn -0.5000 0.7071 -0.5000
vt 0.241943 0.913822
vt 0.196040 0.692342
vt 0.242858 0.802542
vt 0.242858 0.913806
vt 0.241943 0.802558
vt 0.114294 0.608713
vt 0.193815 0.690066
vt 0.169937 0.707836
vt 0.142257 0.718841
vt 0.112811 0.722313
vt 0.083168 0.718067
vt 0.112662 0.722331
vt 0.055786 0.706341
vt 0.032544 0.688079
vt 0.114294 0.608703
vt 0.032381 0.687951
vt 0.014549 0.664151
vt 0.003504 0.636563
vt 0.000017 0.607210
vt 0.034487 0.527057
vt 0.000000 0.607066
vt 0.004275 0.577671
vt 0.016038 0.550382
vt 0.115781 0.494812
vt 0.058365 0.509286
vt 0.086044 0.498281
vt 0.115640 0.494792
vt 0.196040 0.529330
vt 0.195920 0.529171
vt 0.172515 0.510781
vt 0.145133 0.499055
s 1
usemtl STL
f 2/3/1 1/1/2 4/5/3
f 1/1/2 2/3/1 3/4/4
f 4/6/3 1/2/2 5/7/5
f 6/8/6 4/6/6 5/7/6
f 7/9/6 4/6/6 6/8/6
f 4/6/6 7/9/6 8/10/6
f 8/10/6 9/11/6 4/6/6
f 9/11/6 8/10/6 10/12/6
f 4/6/6 9/11/6 11/13/6
f 4/6/6 11/13/6 12/14/6
f 14/16/6 13/15/6 12/14/6
f 4/6/7 12/14/6 13/15/6
f 13/15/6 14/16/6 15/17/6
f 13/15/6 15/17/6 16/18/6
f 13/15/6 16/18/6 17/19/6
f 17/19/6 18/20/6 13/15/6
f 18/20/6 17/19/6 19/21/6
f 18/20/6 19/21/6 20/22/6
f 18/20/6 20/22/6 21/23/6
f 22/24/6 18/20/6 23/25/6
f 18/20/6 22/24/6 13/15/6
f 22/24/6 23/25/6 24/26/6
f 22/24/6 24/26/6 25/27/6
f 26/28/8 22/24/6 27/29/6
f 22/24/6 26/28/8 13/15/6
f 27/29/6 22/24/6 28/30/6
f 28/30/6 22/24/6 29/31/6
#o Carousel.670
v 2.379538 0.919734 -2.380426
v -0.003483 0.946054 0.002596
v -0.003483 0.919734 0.002596
v 2.318288 0.946054 -2.319176
v 2.379538 0.946054 -2.380426
v 0.000585 0.946055 -3.277446
v 0.850643 0.946055 -3.165561
v 1.642779 0.946054 -2.837478
v -0.003631 0.946054 0.002448
v -0.003631 0.946055 -3.276891
v -0.849467 0.946055 -3.165507
v -1.641582 0.946054 -2.837373
v -2.321612 0.946054 -2.315535
vn -0.0000 -0.0000 1.0000
vn 0.9984 -0.0000 0.0571
vn 0.5000 0.7071 0.5000
vn -0.0000 -0.0003 1.0000
vn 0.8107 0.5836 0.0463
vn -0.0000 1.0000 -0.0000
vt 0.461375 0.582767
vt 0.460459 0.469735
vt 0.812195 0.125758
vt 0.461375 0.469726
vt 0.460459 0.579871
vt 0.812195 0.239721
vt 0.460459 0.582776
vt 0.731829 0.206660
vt 0.755428 0.224688
vt 0.782909 0.235973
vt 0.812188 0.125758
vt 0.731740 0.206543
vt 0.713722 0.183119
vt 0.702340 0.155668
vt 0.698459 0.126186
s 1
usemtl STL
f 31/33/9 30/32/10 33/36/11
f 30/32/10 31/33/9 32/35/12
f 33/36/11 30/32/10 34/38/13
f 35/39/14 31/34/14 33/37/11
f 35/39/14 33/37/11 36/40/14
f 36/40/14 33/37/11 37/41/14
f 35/39/14 38/42/14 31/34/14
f 38/42/14 35/39/14 39/43/14
f 40/44/14 38/42/14 39/43/14
f 41/45/14 38/42/14 40/44/14
f 38/42/14 41/45/14 42/46/14
